# xmcd
#
# Track frame offsets:
# 150
# 20055
# 31531
# 48908
# 63574
# 80507
# 96275
# 112840
# 128360
# 146444
# 161426
# 173966
# 190977
# 203808
# 223019
#
# Disc length: 3426 seconds
#
#
# Revision: 0
# Processed by: cddbd v1.5.1PL0 Copyright (c) Steve Scherf et al.
# Submitted via: FreeRIP 2.90 
#
DISCID=c50d600f
DTITLE=Paulo Line e Patriota - Cheiro de Viola
DYEAR=2004
DGENRE=Country
TTITLE0=Sitio Dos Coqueiros (cururu)
TTITLE1=Cheiro De Viola (pagode de viola)
TTITLE2=O Matador De Cabeleira (querumana)
TTITLE3=Berco Adorado (guarania)
TTITLE4=Abandono (polca)
TTITLE5=Fazenda Serra Azul (rasqueado)
TTITLE6=Tenha Pena De Mim (ritmo jovem)
TTITLE7=Mudei De Vida (guarania)
TTITLE8=Caminho Da Ilusao (caterete)
TTITLE9=Um Erro Nao Conserta O Outro (guarania)
TTITLE10=Mundo Virado (pagode de viola)
TTITLE11=Vida De Caboclo (rasqueado)
TTITLE12=Viagem Na Lembranca (cururu)
TTITLE13=Velho Pai (caterete)
TTITLE14=Meu Pedaco De Chao (poema caipira)
EXTD=2004
EXTT0=
EXTT1=
EXTT2=
EXTT3=
EXTT4=
EXTT5=
EXTT6=
EXTT7=
EXTT8=
EXTT9=
EXTT10=
EXTT11=
EXTT12=
EXTT13=
EXTT14=
PLAYORDER=
